HIERARCHY
ROOT hip
{
	OFFSET 0.000000 0.000000 0.000000
	CHANNELS 6  Xposition Yposition Zposition Xrotation Zrotation Yrotation
	JOINT abdomen
	{
		OFFSET 0.000000 3.402643 0.000000
			CHANNELS 3 Xrotation Zrotation Yrotation
		JOINT chest
		{
			OFFSET 0.000000 8.438565 -0.680529
				CHANNELS 3 Xrotation Zrotation Yrotation
			JOINT neck
			{
				OFFSET 0.000000 10.207942 -0.272212
					CHANNELS 3 Xrotation Zrotation Yrotation
				JOINT head
				{
					OFFSET 0.000000 3.130431 0.000000
						CHANNELS 3 Xrotation Zrotation Yrotation
					End Site
					{
						OFFSET 0.000000 3.130435 0.000000
					}
				}
			}
			JOINT rCollar
			{
				OFFSET 3.470700 6.669187 -0.816635
					CHANNELS 3 Yrotation Zrotation Xrotation
				JOINT rShldr
				{
					OFFSET 3.198488 0.000000 0.000000
						CHANNELS 3 Zrotation Yrotation Xrotation
					JOINT rForeArm
					{
						OFFSET 10.139888 0.000000 0.000000
							CHANNELS 3 Yrotation Zrotation Xrotation
						JOINT rHand
						{
							OFFSET 8.370511 0.000000 0.000000
								CHANNELS 3 Zrotation Yrotation Xrotation
							End Site
							{
								OFFSET 4.083176 0.000000 0.000000
							}
						}
					}
				}
			}
			JOINT lCollar
			{
				OFFSET -3.470700 6.669187 -0.816635
					CHANNELS 3 Yrotation Zrotation Xrotation
				JOINT lShldr
				{
					OFFSET -3.198488 0.000000 0.000000
						CHANNELS 3 Zrotation Yrotation Xrotation
					JOINT lForeArm
					{
						OFFSET -10.139888 0.000000 0.000000
							CHANNELS 3 Yrotation Zrotation Xrotation
						JOINT lHand
						{
							OFFSET -8.370511 0.000000 0.000000
								CHANNELS 3 Zrotation Yrotation Xrotation
							End Site
							{
								OFFSET -4.083176 0.000000 0.000000
							}
						}
					}
				}
			}
		}
	}
	JOINT rThigh
	{
		OFFSET 5.308129 -1.633274 1.361059
			CHANNELS 3 Xrotation Zrotation Yrotation
		JOINT rShin
		{
			OFFSET -2.041588 -20.007561 0.000000
				CHANNELS 3 Xrotation Zrotation Yrotation
			JOINT rFoot
			{
				OFFSET 0.000000 -19.190928 -1.224953
					CHANNELS 3 Xrotation Yrotation Zrotation
				End Site
				{
					OFFSET 0.000000 -2.449906 4.627600
				}
			}
		}
	}
	JOINT lThigh
	{
		OFFSET -5.308129 -1.633274 1.361059
			CHANNELS 3 Xrotation Zrotation Yrotation
		JOINT lShin
		{
			OFFSET 2.041588 -20.007561 0.000000
				CHANNELS 3 Xrotation Zrotation Yrotation
			JOINT lFoot
			{
				OFFSET 0.000000 -19.190928 -1.224953
					CHANNELS 3 Xrotation Yrotation Zrotation
				End Site
				{
					OFFSET 0.000000 -2.449906 4.627600
				}
			}
		}
	}
}
MOTION
Frames: 23
Frame Time: 0.032000
-0.000000 46.477573 0.000000 0.00 0.00 -0.00 0.01 0.00 -0.00 -0.14 -0.01 0.00 0.00 0.00 -0.00 0.00 0.00 -0.00 -0.00 1.00 0.00 72.99 -9.00 18.99 6.99 -0.00 0.00 1.03 7.97 -4.49 -0.00 1.00 0.00 -73.00 8.99 18.99 -7.00 -0.00 -0.00 -1.04 -7.98 -4.49 0.00 0.00 -0.01 0.00 0.00 -0.00 -0.00 -0.00 0.00 0.00 0.00 -0.00 0.00 0.00 -0.00 -0.00 -0.00 0.00 
-0.000000 46.477573 0.000000 0.00 0.00 -0.00 0.01 0.00 -0.00 -0.14 -0.01 0.00 0.00 0.00 -0.00 0.00 0.00 -0.00 -0.00 1.00 0.00 72.99 -9.00 18.99 6.99 -0.00 0.00 1.03 7.97 -4.49 -0.00 1.00 0.00 -73.00 8.99 18.99 -7.00 -0.00 -0.00 -1.04 -7.98 -4.49 0.00 0.00 -0.01 0.00 0.00 -0.00 -0.00 -0.00 0.00 0.00 0.00 -0.00 0.00 0.00 -0.00 -0.00 -0.00 0.00 
-0.000000 46.477573 0.000000 0.00 0.00 -0.00 0.01 0.00 -0.00 -0.14 -0.01 0.00 0.00 0.00 -0.00 0.00 0.00 -0.00 -0.00 1.00 0.00 72.99 -9.00 18.99 6.99 -0.00 0.00 1.03 7.97 -4.49 -0.00 1.00 0.00 -73.00 8.99 18.99 -7.00 -0.00 -0.00 -1.04 -7.98 -4.49 0.00 0.00 -0.01 0.00 0.00 -0.00 -0.00 -0.00 0.00 0.00 0.00 -0.00 0.00 0.00 -0.00 -0.00 -0.00 0.00 
-0.000000 46.477573 0.000000 0.00 0.00 -0.00 0.01 0.00 -0.00 -0.14 -0.01 0.00 0.00 0.00 -0.00 0.00 0.00 -0.00 -0.00 1.00 0.00 72.99 -9.00 18.99 6.99 -0.00 0.00 1.03 7.97 -4.49 -0.00 1.00 0.00 -73.00 8.99 18.99 -7.00 -0.00 -0.00 -1.04 -7.98 -4.49 0.00 0.00 -0.01 0.00 0.00 -0.00 -0.00 -0.00 0.00 0.00 0.00 -0.00 0.00 0.00 -0.00 -0.00 -0.00 0.00 
-0.000000 46.477573 0.000000 0.00 0.00 -0.00 0.01 0.00 -0.00 -0.14 -0.01 0.00 0.00 0.00 -0.00 0.00 0.00 -0.00 -0.00 1.00 0.00 72.99 -9.00 18.99 6.99 -0.00 0.00 1.03 7.97 -4.49 -0.00 1.00 0.00 -73.00 8.99 18.99 -7.00 -0.00 -0.00 -1.04 -7.98 -4.49 0.00 0.00 -0.01 0.00 0.00 -0.00 -0.00 -0.00 0.00 0.00 0.00 -0.00 0.00 0.00 -0.00 -0.00 -0.00 0.00 
-0.000000 46.477573 0.000000 0.00 0.00 -0.00 0.01 0.00 -0.00 -0.14 -0.01 0.00 0.00 0.00 -0.00 0.00 0.00 -0.00 -0.00 1.00 0.00 72.99 -9.00 18.99 6.99 -0.00 0.00 1.03 7.97 -4.49 -0.00 1.00 0.00 -73.00 8.99 18.99 -7.00 -0.00 -0.00 -1.04 -7.98 -4.49 0.00 0.00 -0.01 0.00 0.00 -0.00 -0.00 -0.00 0.00 0.00 0.00 -0.00 0.00 0.00 -0.00 -0.00 -0.00 0.00 
-0.000000 46.477573 0.000000 0.00 0.00 -0.00 0.01 0.00 -0.00 -0.14 -0.01 0.00 0.00 0.00 -0.00 0.00 0.00 -0.00 -0.00 1.00 0.00 72.99 -9.00 18.99 6.99 -0.00 0.00 1.03 7.97 -4.49 -0.00 1.00 0.00 -73.00 8.99 18.99 -7.00 -0.00 -0.00 -1.04 -7.98 -4.49 0.00 0.00 -0.01 0.00 0.00 -0.00 -0.00 -0.00 0.00 0.00 0.00 -0.00 0.00 0.00 -0.00 -0.00 -0.00 0.00 
-0.000000 46.477573 0.000000 0.00 0.00 -0.00 0.01 0.00 -0.00 -0.14 -0.01 0.00 0.00 0.00 -0.00 0.00 0.00 -0.00 -0.00 1.00 0.00 72.99 -9.00 18.99 6.99 -0.00 0.00 1.03 7.97 -4.49 -0.00 1.00 0.00 -73.00 8.99 18.99 -7.00 -0.00 -0.00 -1.04 -7.98 -4.49 0.00 0.00 -0.01 0.00 0.00 -0.00 -0.00 -0.00 0.00 0.00 0.00 -0.00 0.00 0.00 -0.00 -0.00 -0.00 0.00 
-0.000000 46.477573 0.000000 0.00 0.00 -0.00 0.01 0.00 -0.00 -0.14 -0.01 0.00 0.00 0.00 -0.00 0.00 0.00 -0.00 -0.00 1.00 0.00 72.99 -9.00 18.99 6.99 -0.00 0.00 1.03 7.97 -4.49 -0.00 1.00 0.00 -73.00 8.99 18.99 -7.00 -0.00 -0.00 -1.04 -7.98 -4.49 0.00 0.00 -0.01 0.00 0.00 -0.00 -0.00 -0.00 0.00 0.00 0.00 -0.00 0.00 0.00 -0.00 -0.00 -0.00 0.00 
-0.000000 46.477573 0.000000 0.00 0.00 -0.00 0.01 0.00 -0.00 -0.14 -0.01 0.00 0.00 0.00 -0.00 0.00 0.00 -0.00 -0.00 1.00 0.00 72.99 -9.00 18.99 6.99 -0.00 0.00 1.03 7.97 -4.49 -0.00 1.00 0.00 -73.00 8.99 18.99 -7.00 -0.00 -0.00 -1.04 -7.98 -4.49 0.00 0.00 -0.01 0.00 0.00 -0.00 -0.00 -0.00 0.00 0.00 0.00 -0.00 0.00 0.00 -0.00 -0.00 -0.00 0.00 
-0.000000 46.477573 0.000000 0.00 0.00 -0.00 0.00 0.00 -0.00 -0.14 -0.01 0.00 0.00 0.00 -0.00 0.00 0.00 -0.00 -0.00 1.00 0.00 72.99 -9.00 18.99 6.99 -0.00 0.00 1.03 7.97 -4.49 -0.00 1.00 0.00 -73.00 8.99 18.99 -7.00 -0.00 -0.00 -1.04 -7.98 -4.49 0.00 0.00 -0.01 0.00 0.00 -0.00 -0.00 -0.00 0.00 0.00 0.00 -0.00 0.00 0.00 -0.00 -0.00 -0.00 0.00 
-0.000000 46.477573 0.000000 0.00 0.00 -0.00 4.00 0.00 -0.00 -0.14 -0.01 0.00 -2.80 -0.00 -0.00 0.00 0.00 -0.00 -0.00 1.00 0.00 72.99 -9.00 18.99 6.99 -0.00 0.00 1.03 7.97 -4.49 -0.00 1.00 0.00 -73.00 8.99 18.99 -7.00 -0.00 -0.00 -1.04 -7.98 -4.49 0.00 0.00 -0.01 0.00 0.00 -0.00 -0.00 -0.00 0.00 0.00 0.00 -0.00 0.00 0.00 -0.00 -0.00 -0.00 0.00 
-0.000000 46.477573 0.000000 0.00 0.00 -0.00 8.00 0.00 -0.00 -0.14 -0.01 0.00 -5.60 -0.00 -0.00 0.00 0.00 -0.00 -0.00 1.00 0.00 72.99 -9.00 18.99 6.99 -0.00 0.00 1.03 7.97 -4.49 -0.00 1.00 0.00 -73.00 8.99 18.99 -7.00 -0.00 -0.00 -1.04 -7.98 -4.49 0.00 0.00 -0.01 0.00 0.00 -0.00 -0.00 -0.00 0.00 0.00 0.00 -0.00 0.00 0.00 -0.00 -0.00 -0.00 0.00 
-0.000000 46.477573 0.000000 0.00 0.00 -0.00 12.01 0.00 -0.00 -0.14 -0.01 0.00 -8.40 -0.00 -0.00 0.00 0.00 -0.00 -0.00 1.00 0.00 72.99 -9.00 18.99 6.99 -0.00 0.00 1.03 7.97 -4.49 -0.00 1.00 0.00 -73.00 8.99 18.99 -7.00 -0.00 -0.00 -1.04 -7.98 -4.49 0.00 0.00 -0.01 0.00 0.00 -0.00 -0.00 -0.00 0.00 0.00 0.00 -0.00 0.00 0.00 -0.00 -0.00 -0.00 0.00 
-0.000000 46.477573 0.000000 0.00 0.00 -0.00 16.03 0.00 -0.00 -0.23 -0.01 0.00 -11.20 -0.00 -0.00 0.00 0.00 -0.00 -0.00 1.00 0.00 72.99 -9.00 18.99 6.99 -0.00 0.00 1.03 7.97 -4.49 -0.00 1.00 0.00 -73.00 8.99 18.99 -7.00 -0.00 -0.00 -1.04 -7.98 -4.49 0.01 0.00 -0.01 0.00 0.00 -0.00 -0.00 -0.00 0.00 0.02 -0.00 -0.00 0.00 0.00 -0.00 -0.01 -0.00 -0.00 
-0.000000 46.477573 0.000000 0.00 0.00 -0.00 20.06 0.00 -0.00 -0.42 -0.01 0.00 -14.00 -0.00 -0.00 0.00 0.00 -0.00 -0.00 1.00 0.00 72.99 -9.00 18.99 6.99 -0.00 0.00 1.03 7.97 -4.49 -0.00 1.00 0.00 -73.00 9.00 18.99 -7.00 -0.00 -0.00 -1.04 -7.98 -4.49 0.04 0.00 -0.02 0.00 0.00 -0.00 -0.00 -0.00 0.00 0.04 -0.01 -0.00 0.00 0.00 -0.00 -0.03 -0.01 -0.00 
-0.000000 46.477573 0.000000 0.00 0.00 -0.00 24.07 0.00 -0.00 -0.51 -0.01 0.00 -16.80 -0.00 -0.00 0.00 0.00 -0.00 -0.00 1.00 0.00 72.99 -9.00 18.99 6.99 -0.00 0.00 1.03 7.97 -4.49 -0.00 1.00 0.00 -73.00 9.00 18.98 -7.00 -0.00 -0.00 -1.04 -7.98 -4.49 0.05 0.00 -0.01 0.00 0.00 -0.00 -0.00 -0.00 0.00 0.05 -0.01 -0.00 0.00 0.00 -0.00 -0.03 -0.01 -0.00 
-0.000000 46.477573 0.000000 0.00 0.00 -0.00 28.10 0.00 -0.00 -0.70 -0.01 0.00 -19.60 -0.00 -0.00 0.00 0.00 -0.00 -0.00 1.00 0.00 72.99 -9.00 18.99 6.99 -0.00 0.00 1.03 7.97 -4.49 -0.00 1.00 0.00 -73.00 8.99 18.99 -7.00 -0.00 -0.00 -1.04 -7.98 -4.49 0.09 0.00 -0.01 0.00 0.00 -0.00 -0.00 -0.00 0.00 0.08 -0.01 -0.00 0.00 0.00 -0.00 -0.05 -0.01 -0.00 
-0.000000 46.477573 0.000000 0.00 0.00 -0.00 32.13 0.00 -0.00 -0.88 -0.01 0.00 -22.40 -0.00 -0.00 0.00 0.00 -0.00 -0.00 1.00 0.00 72.99 -9.00 18.99 6.99 -0.00 0.00 1.03 7.97 -4.49 -0.00 1.00 0.00 -73.00 8.99 18.99 -7.00 -0.00 -0.00 -1.04 -7.98 -4.49 0.10 0.00 -0.02 0.00 0.00 -0.00 -0.00 -0.00 0.00 0.12 -0.01 -0.00 0.00 0.00 -0.00 -0.07 -0.01 -0.00 
-0.000000 46.477573 0.000000 0.00 0.00 -0.00 36.14 0.00 -0.00 -0.96 -0.01 0.00 -25.20 -0.00 -0.00 0.00 0.00 -0.00 -0.00 1.00 0.00 72.99 -9.00 18.99 6.99 -0.00 0.00 1.03 7.97 -4.49 -0.00 1.00 0.00 -73.00 8.99 18.99 -7.00 -0.00 -0.00 -1.04 -7.98 -4.49 0.12 0.00 -0.02 0.00 0.00 -0.00 -0.00 -0.00 0.00 0.13 -0.01 -0.00 0.00 0.00 -0.00 -0.08 -0.01 -0.00 
-0.000000 46.477573 0.000000 0.00 0.00 -0.00 40.20 0.00 -0.00 -1.28 -0.01 0.00 -28.00 -0.00 -0.00 0.00 0.00 -0.00 -0.00 1.00 0.00 72.99 -9.00 18.99 6.99 -0.00 0.00 1.03 7.97 -4.49 -0.00 1.00 0.00 -73.00 8.99 18.99 -7.00 -0.00 -0.00 -1.04 -7.98 -4.49 0.17 0.00 -0.01 0.00 0.00 -0.00 -0.00 -0.00 0.00 0.17 -0.01 -0.00 0.00 0.00 -0.00 -0.10 -0.01 -0.00 
-0.000000 46.477573 0.000000 0.00 0.00 -0.00 36.23 0.00 -0.00 -1.47 -0.01 0.00 -25.20 -0.00 -0.00 0.00 0.00 -0.00 -0.00 1.00 0.00 72.99 -9.00 18.99 6.99 -0.00 0.00 1.03 7.97 -4.49 -0.00 1.00 0.00 -73.00 8.99 18.99 -7.00 -0.00 -0.00 -1.04 -7.98 -4.49 0.21 0.00 -0.01 0.00 0.00 -0.00 -0.00 -0.00 0.00 0.20 -0.01 -0.00 0.00 0.00 -0.00 -0.13 -0.00 -0.00 
-0.000000 46.477573 0.000000 0.00 0.00 -0.00 32.26 0.00 -0.00 -1.68 -0.01 0.00 -22.40 -0.00 -0.00 0.00 0.00 -0.00 -0.00 1.00 0.00 72.99 -9.00 18.99 6.99 -0.00 0.00 1.03 7.97 -4.49 -0.00 1.00 0.00 -73.00 9.00 18.98 -7.00 -0.00 -0.00 -1.04 -7.98 -4.49 0.23 0.00 -0.02 0.00 0.00 -0.00 -0.00 -0.00 0.00 0.24 -0.01 -0.00 0.00 0.00 -0.00 -0.15 -0.00 -0.00 
